<mxfile host="app.diagrams.net" modified="2020-09-13T07:55:11.938Z" agent="5.0 (Windows NT 10.0; Win64; x64) AppleWebKit/537.36 (KHTML, like Gecko) Chrome/85.0.4183.102 Safari/537.36" etag="5hNhbISEN9wI-9prm2jZ" version="13.6.10" type="github">
  <diagram id="ige9_82yQ3dsvCUjwejW" name="Page-1">
    <mxGraphModel dx="868" dy="1582" grid="1" gridSize="10" guides="1" tooltips="1" connect="1" arrows="1" fold="1" page="1" pageScale="1" pageWidth="850" pageHeight="1100" math="0" shadow="0">
      <root>
        <mxCell id="0" />
        <mxCell id="1" parent="0" />
        <mxCell id="pnB3yH5A7bhCn9vbz1Ak-1" value="" style="endArrow=none;html=1;strokeWidth=3;" edge="1" parent="1">
          <mxGeometry width="50" height="50" relative="1" as="geometry">
            <mxPoint x="40" y="-619" as="sourcePoint" />
            <mxPoint x="40" y="-1081" as="targetPoint" />
          </mxGeometry>
        </mxCell>
        <mxCell id="pnB3yH5A7bhCn9vbz1Ak-4" value="" style="endArrow=none;html=1;strokeWidth=3;" edge="1" parent="1">
          <mxGeometry width="50" height="50" relative="1" as="geometry">
            <mxPoint x="40" y="-1080" as="sourcePoint" />
            <mxPoint x="840" y="-1080" as="targetPoint" />
          </mxGeometry>
        </mxCell>
        <mxCell id="pnB3yH5A7bhCn9vbz1Ak-5" value="" style="endArrow=none;html=1;strokeWidth=3;" edge="1" parent="1">
          <mxGeometry width="50" height="50" relative="1" as="geometry">
            <mxPoint x="840" y="-618" as="sourcePoint" />
            <mxPoint x="840" y="-1080" as="targetPoint" />
          </mxGeometry>
        </mxCell>
        <mxCell id="pnB3yH5A7bhCn9vbz1Ak-6" value="" style="endArrow=none;html=1;strokeWidth=3;" edge="1" parent="1">
          <mxGeometry width="50" height="50" relative="1" as="geometry">
            <mxPoint x="200" y="-618" as="sourcePoint" />
            <mxPoint x="200" y="-1080" as="targetPoint" />
          </mxGeometry>
        </mxCell>
        <mxCell id="pnB3yH5A7bhCn9vbz1Ak-7" value="" style="endArrow=none;html=1;strokeWidth=3;" edge="1" parent="1">
          <mxGeometry width="50" height="50" relative="1" as="geometry">
            <mxPoint x="360" y="-618" as="sourcePoint" />
            <mxPoint x="360" y="-1080" as="targetPoint" />
          </mxGeometry>
        </mxCell>
        <mxCell id="pnB3yH5A7bhCn9vbz1Ak-8" value="" style="endArrow=none;html=1;strokeWidth=3;" edge="1" parent="1">
          <mxGeometry width="50" height="50" relative="1" as="geometry">
            <mxPoint x="680" y="-618" as="sourcePoint" />
            <mxPoint x="680" y="-1080" as="targetPoint" />
          </mxGeometry>
        </mxCell>
        <mxCell id="pnB3yH5A7bhCn9vbz1Ak-9" value="" style="endArrow=none;html=1;strokeWidth=3;" edge="1" parent="1">
          <mxGeometry width="50" height="50" relative="1" as="geometry">
            <mxPoint x="40" y="-1020" as="sourcePoint" />
            <mxPoint x="840" y="-1020" as="targetPoint" />
          </mxGeometry>
        </mxCell>
        <mxCell id="pnB3yH5A7bhCn9vbz1Ak-10" value="หน่วยงานจัดซื้อ&lt;br style=&quot;font-size: 14px;&quot;&gt;(Purchasing)" style="text;html=1;strokeColor=none;fillColor=none;align=center;verticalAlign=middle;whiteSpace=wrap;rounded=0;fontSize=14;fontStyle=1" vertex="1" parent="1">
          <mxGeometry x="30" y="-1068" width="170" height="30" as="geometry" />
        </mxCell>
        <mxCell id="pnB3yH5A7bhCn9vbz1Ak-11" value="ผู้จำหน่าย&lt;br style=&quot;font-size: 14px&quot;&gt;(Vendor)" style="text;html=1;strokeColor=none;fillColor=none;align=center;verticalAlign=middle;whiteSpace=wrap;rounded=0;fontSize=14;fontStyle=1" vertex="1" parent="1">
          <mxGeometry x="220" y="-1067" width="110" height="28" as="geometry" />
        </mxCell>
        <mxCell id="pnB3yH5A7bhCn9vbz1Ak-12" value="หน่วยงานคลังสินค้า&lt;br style=&quot;font-size: 14px&quot;&gt;(Warehouse)" style="text;html=1;strokeColor=none;fillColor=none;align=center;verticalAlign=middle;whiteSpace=wrap;rounded=0;fontSize=14;fontStyle=1" vertex="1" parent="1">
          <mxGeometry x="440" y="-1067" width="170" height="30" as="geometry" />
        </mxCell>
        <mxCell id="pnB3yH5A7bhCn9vbz1Ak-13" value="หน่วยงานบัญชี-เจ้าหนี้&lt;br style=&quot;font-size: 14px&quot;&gt;(Accounting-AP)" style="text;html=1;strokeColor=none;fillColor=none;align=center;verticalAlign=middle;whiteSpace=wrap;rounded=0;fontSize=14;fontStyle=1" vertex="1" parent="1">
          <mxGeometry x="670" y="-1067" width="180" height="30" as="geometry" />
        </mxCell>
      </root>
    </mxGraphModel>
  </diagram>
</mxfile>
